PathFileType	4	(X/Y/Z)	c:/Users/goper/Files/vsCode/490R/osim_files/A06/A06_Fast_04.trc
DataRate	CameraRate	NumFrames	NumMarkers	Units                	OrigDataRate	OrigDataStartFrame	OrigNumFrames
120.00	120.00	8	36	mm	120.0	361	960
                Frame#	Time	LPSIS			LASIS			LTH1			LTH2			LTH3			LTH4			LLFE			LMFE			LSH1			LSH2			LSH3			LSH4			LLMAL			LMMAL			LCAL			LMTP5			LTOE			LMTP1			RPSIS			RASIS			RTH1			RTH2			RTH3			RTH4			RLFE			RMFE			RSH1			RSH2			RSH3			RSH4			RLMAL			RMMAL			RCAL			RMTP1			RTOE			RMTP5		
		X1	Y1	Z1	X2	Y2	Z2	X3	Y3	Z3	X4	Y4	Z4	X5	Y5	Z5	X6	Y6	Z6	X7	Y7	Z7	X8	Y8	Z8	X9	Y9	Z9	X10	Y10	Z10	X11	Y11	Z11	X12	Y12	Z12	X13	Y13	Z13	X14	Y14	Z14	X15	Y15	Z15	X16	Y16	Z16	X17	Y17	Z17	X18	Y18	Z18	X19	Y19	Z19	X20	Y20	Z20	X21	Y21	Z21	X22	Y22	Z22	X23	Y23	Z23	X24	Y24	Z24	X25	Y25	Z25	X26	Y26	Z26	X27	Y27	Z27	X28	Y28	Z28	X29	Y29	Z29	X30	Y30	Z30	X31	Y31	Z31	X32	Y32	Z32	X33	Y33	Z33	X34	Y34	Z34	X35	Y35	Z35	X36	Y36	Z36

361	3.00000	-554.30206	957.44580	307.43182	-746.25629	905.89032	367.38806	-780.06219	555.41241	397.45673	-803.51331	521.21802	388.65964	-838.18732	583.16608	386.50027	-850.81195	543.46704	380.12357	-859.10077	470.65546	370.64673	-854.51001	467.10379	264.34692	-834.87000	363.83273	384.67801	-856.75763	323.59406	388.30035	-891.16693	387.51404	375.75510	-905.08691	347.18884	379.73047	-950.34052	90.88150	343.73978	-965.40594	108.69498	261.79559	-893.79211	68.47462	291.49234	-1075.46509	74.17109	358.41949	-1101.91296	112.33448	305.65439	-1085.32996	94.57442	267.46487	-549.18396	980.55090	175.52104	-722.32056	940.66699	109.67928	-508.39130	586.45850	84.99956	-495.75449	545.35291	85.93159	-565.26221	561.20294	90.82341	-543.75568	522.47174	89.22088	-471.37112	431.91940	115.92514	-480.56573	433.73407	204.46677	-386.60507	300.73889	137.28537	-367.55801	257.18661	141.23268	-440.22983	272.66071	144.57939	-413.82697	232.00735	143.63942	-291.55313	120.16336	141.38138	-310.72867	121.53069	223.15491	-236.14099	108.96027	192.60197	-431.51944	51.86874	208.00113	-446.17725	59.92643	165.90155	-413.18848	50.66401	120.99059
362	3.00833	-566.57098	956.09027	306.71024	-758.48700	904.06128	367.48505	-793.38464	555.52173	395.79428	-816.31415	520.98846	386.84567	-851.50018	582.64368	383.68985	-863.49292	542.82788	377.47614	-870.71179	469.89639	369.51752	-865.11664	466.42181	262.52856	-847.04773	363.70856	383.70187	-869.23572	322.88162	388.43790	-903.41510	386.63522	373.46555	-916.94501	346.15225	377.48502	-955.77594	89.20660	342.73990	-970.97815	105.58305	260.36871	-897.81091	69.78146	291.16797	-1079.74695	66.67807	356.40201	-1107.78357	103.05644	303.13052	-1089.87488	86.24233	264.67395	-560.74896	979.55225	174.45638	-735.03284	939.35065	109.91465	-518.29633	585.53827	84.88222	-504.99899	544.65985	85.88190	-574.81653	559.84814	90.53866	-552.71832	521.04651	89.20256	-479.04391	431.56540	115.78490	-487.88467	433.36545	204.64340	-392.00800	301.88486	137.19806	-372.15833	258.64783	141.20998	-444.32516	273.04050	144.79176	-418.07864	232.65077	143.65274	-293.52402	122.53460	141.38608	-312.70975	123.60343	223.17940	-237.51788	112.01385	193.12579	-432.19391	51.91201	208.07484	-446.95804	59.78761	165.89563	-413.93759	50.95441	120.95231
363	3.01667	-578.78577	955.09387	305.91922	-770.54230	902.51147	367.55676	-807.03284	555.96423	394.55371	-830.14038	521.04797	386.60547	-864.61359	583.05658	381.09006	-876.77747	543.14111	375.05817	-883.06732	469.97424	368.38791	-872.63800	464.49213	260.88751	-859.01550	363.86066	383.29993	-880.48816	322.71707	387.98849	-915.58685	385.88037	371.66724	-928.46899	345.16559	375.58493	-960.22400	88.03148	341.99664	-975.35413	103.04530	259.33240	-901.32794	70.80872	291.00220	-1083.16248	60.15390	355.49792	-1113.11951	94.78256	302.04208	-1094.05811	78.52533	263.59845	-573.42200	978.18884	173.35861	-747.73389	938.12109	110.20325	-528.31732	584.61395	84.83662	-514.69006	544.03253	85.68026	-584.47095	558.10474	90.49487	-561.98523	519.73389	89.07877	-487.12134	431.16846	115.72540	-495.97754	432.86508	204.63005	-397.75186	303.05945	137.16541	-377.14917	260.27832	141.21030	-450.41360	273.22931	144.35054	-422.45511	233.42216	143.62299	-295.82031	125.30225	141.31223	-315.45670	125.82093	223.04970	-239.99501	116.30597	192.91147	-433.20639	51.99874	208.03279	-447.68262	59.63513	166.10898	-414.83450	51.35799	120.84282
364	3.02500	-590.77936	954.58563	304.97986	-782.19336	901.32471	367.62543	-821.06042	557.34668	393.67065	-843.96118	522.48352	385.70850	-878.14069	584.53497	378.50485	-890.30151	544.60291	372.91489	-896.00586	470.75653	367.29321	-881.66907	464.11685	259.93271	-870.51965	364.28906	383.14713	-891.39716	322.81708	387.59863	-927.24640	385.26016	370.58063	-939.44153	344.34503	374.31900	-964.02887	87.11810	341.54230	-979.52826	101.23881	258.67484	-904.26556	72.04978	290.77463	-1085.80408	54.18298	355.44308	-1117.69019	87.68732	302.73923	-1097.43384	72.15627	263.58566	-586.04803	976.91919	172.24039	-760.49878	937.13586	110.49015	-538.82123	583.60199	84.85014	-524.74139	542.96783	85.75845	-595.57098	557.24066	90.08146	-571.96704	518.46851	89.08365	-496.11716	430.62616	115.64961	-504.90887	432.18796	204.54279	-404.17883	304.35175	137.04321	-382.59467	262.03931	141.20226	-455.33646	273.49603	144.72903	-427.41107	234.31642	143.51845	-298.49515	128.41609	141.20706	-317.87207	128.69025	223.20294	-242.60246	120.73994	192.83595	-434.21701	51.98977	207.97641	-448.80945	59.49005	165.91412	-415.82251	51.75600	120.78253
365	3.03333	-602.60260	954.52185	303.85294	-793.37750	900.61725	367.75632	-835.26166	559.68842	393.18652	-858.28784	524.92334	385.28070	-891.73981	587.08337	375.98917	-904.04059	546.96289	370.84424	-909.31451	471.90610	366.12146	-890.96600	464.42474	259.52213	-881.15344	365.32297	383.13895	-901.25732	323.47159	387.55991	-938.22589	385.33517	370.04752	-949.62555	344.07944	373.54132	-967.09637	86.41283	341.54712	-983.14154	100.04547	258.55417	-906.49365	73.12643	290.94553	-1087.72131	48.91721	355.54108	-1122.48352	80.89157	303.08255	-1100.16296	67.10908	263.69540	-598.60437	975.85760	170.94930	-772.99487	936.27338	110.73815	-549.68842	582.68152	84.76601	-535.25330	542.12854	85.67856	-606.16437	555.91010	90.06949	-582.22363	517.35388	89.02642	-505.97656	430.04141	115.48682	-514.59387	431.44019	204.47435	-411.24506	305.72623	136.98227	-388.73953	263.91284	141.03737	-463.05038	274.21356	143.81725	-433.02432	235.19888	143.34204	-301.85709	132.10214	140.96106	-321.21454	131.88034	223.11029	-245.76863	125.87141	192.62177	-435.48019	52.10987	207.97549	-450.04959	59.37027	165.75758	-417.15253	52.33551	120.51054
366	3.04167	-613.68756	955.04413	302.76727	-804.54095	900.46924	367.86249	-849.41547	562.70502	393.02008	-872.54559	527.98358	385.16727	-905.29889	590.25604	373.93716	-917.77576	550.25214	369.38162	-922.61487	473.29962	365.37894	-900.75952	465.41132	259.40826	-891.17517	366.82196	383.45575	-910.28961	324.59930	387.93173	-948.48260	385.73642	369.95108	-958.91864	344.12888	373.41641	-969.33441	86.06019	341.71826	-985.78876	99.31302	258.59409	-907.91028	73.99282	291.21994	-1089.59192	45.97013	355.40268	-1126.12170	76.08182	302.77411	-1102.05981	63.29616	263.47141	-610.87982	975.12469	169.58745	-785.53644	935.84906	110.95287	-561.01221	581.66711	84.66029	-546.62408	541.13861	85.57709	-617.52429	554.81647	90.03525	-593.43909	516.22748	88.88161	-516.95874	429.12302	115.34100	-525.54205	430.44263	204.27573	-419.21274	307.26071	136.64584	-395.58893	265.97507	140.84439	-469.54257	274.84201	143.53439	-439.17401	236.29379	143.31227	-305.62198	136.47186	140.66203	-324.88364	135.82671	222.91800	-249.39952	132.00702	192.39062	-436.70599	52.48456	207.90727	-451.39435	59.47105	165.64935	-418.41592	53.23760	120.37536
367	3.05000	-624.89813	956.09491	301.30121	-815.11316	900.69128	368.02216	-862.63159	565.81238	393.41592	-885.79431	531.18927	385.42804	-917.96588	593.58154	372.95892	-930.68896	553.62073	368.58347	-935.43237	475.09171	365.09912	-911.68719	467.06384	259.48535	-900.26868	368.70926	384.06186	-918.64410	325.93420	388.44766	-958.15643	386.04608	370.16205	-967.49670	344.31964	372.35403	-970.85913	86.08186	341.48761	-987.18640	98.97707	258.31036	-908.66669	74.55809	291.16458	-1090.68408	44.92958	354.94366	-1127.71436	73.63240	301.83963	-1102.87122	61.31075	262.80307	-623.86609	974.25861	168.27002	-797.77979	935.76587	111.13947	-573.34021	580.98669	84.62560	-559.22766	539.87994	85.35479	-629.98981	553.83026	90.01547	-606.30023	515.25012	88.83077	-530.27393	427.64481	114.98539	-538.71130	428.85776	203.92070	-428.83652	308.87839	136.25441	-403.94101	268.15012	140.40671	-478.68149	274.42706	143.52829	-446.65048	237.24916	143.07259	-310.13083	141.45284	140.12990	-329.35403	140.06851	222.57411	-253.38889	139.27402	192.13986	-438.29788	53.03160	207.76564	-452.89758	59.63626	165.48953	-420.13977	54.15778	120.20588
368	3.05833	-635.30676	957.50812	300.02188	-825.41345	901.54681	368.13983	-874.59210	568.51685	394.12112	-897.93805	534.00464	386.00497	-929.42761	596.72833	372.93750	-942.42987	556.76849	368.55377	-946.54303	477.00726	365.10016	-923.57385	469.13535	259.73193	-909.00012	370.56412	384.61435	-926.14642	327.43781	389.01184	-967.12402	386.35742	370.43512	-975.43005	344.47821	372.63538	-971.64850	86.23252	341.47327	-988.08923	98.86233	258.28720	-908.99951	74.94222	291.25034	-1091.11816	44.43092	354.87421	-1128.55054	71.88264	301.23056	-1103.51892	60.36129	262.63934	-635.18262	974.35132	166.87802	-809.49707	936.04822	111.33725	-586.81482	579.42749	84.49725	-573.24677	538.54010	85.22488	-643.24744	552.56647	90.15070	-620.59021	514.05396	88.54559	-545.78113	425.53177	114.48747	-553.97260	426.64996	203.40948	-440.72989	310.26868	135.11565	-413.83325	270.56671	139.96175	-488.37616	274.65582	142.90837	-455.61633	238.15973	142.55739	-316.29968	147.20723	139.32678	-335.60944	145.09607	221.81332	-259.53113	147.57944	191.28032	-440.42114	53.59898	207.57140	-453.96017	59.05260	166.30339	-422.53003	55.33737	119.86707
